<?xml version="1.0" encoding="UTF-8"?>
<!DOCTYPE svg PUBLIC "-//W3C//DTD SVG 1.1//EN" "http://www.w3.org/Graphics/SVG/1.1/DTD/svg11.dtd">
<!-- Creator: CorelDRAW -->
<svg xmlns="http://www.w3.org/2000/svg" xml:space="preserve" width="181.61mm" height="38.735mm" version="1.1" style="shape-rendering:geometricPrecision; text-rendering:geometricPrecision; image-rendering:optimizeQuality; fill-rule:evenodd; clip-rule:evenodd"
viewBox="0 0 18161 3873.5"
 xmlns:xlink="http://www.w3.org/1999/xlink"
 xmlns:xodm="http://www.corel.com/coreldraw/odm/2003">
 <defs>
  <style type="text/css">
   <![CDATA[
    .str0 {stroke:gray;stroke-width:52.92;stroke-linecap:round;stroke-miterlimit:22.9256}
    .fil4 {fill:none;fill-rule:nonzero}
    .fil0 {fill:white}
    .fil2 {fill:#005A9F;fill-rule:nonzero}
    .fil1 {fill:black;fill-rule:nonzero}
    .fil3 {fill:gray;fill-rule:nonzero}
   ]]>
  </style>
 </defs>
 <g id="Layer_x0020_1">
  <metadata id="CorelCorpID_0Corel-Layer"/>
  <rect class="fil0" x="-4.23" y="2.12" width="8.47" height="8.47"/>
  <g id="_1333068378608">
   <path class="fil1" d="M4122.47 242.39c0,-61.96 19.71,-109.83 61.96,-149.26 39.42,-39.43 95.75,-59.15 166.15,-59.15 70.41,0 123.92,19.72 166.17,59.15 42.25,39.43 61.96,90.11 61.96,149.26 0,61.95 -19.71,112.65 -61.96,152.08 -42.25,39.42 -95.76,59.14 -166.17,59.14 -67.59,0 -123.91,-19.72 -166.15,-59.14 -39.43,-39.43 -61.96,-90.13 -61.96,-152.08z"/>
   <path class="fil1" d="M8515.82 1619.59c0,-78.85 -28.16,-140.81 -84.49,-183.06 -56.32,-42.25 -157.71,-87.3 -304.16,-135.18 -146.44,-47.88 -261.91,-92.94 -346.4,-140.82 -230.93,-126.73 -349.22,-295.7 -349.22,-506.93 0,-109.84 30.98,-208.4 92.94,-295.71 61.95,-87.3 152.08,-154.89 267.55,-202.77 115.47,-47.88 247.83,-73.23 391.46,-73.23 146.44,0 275.99,25.35 391.46,78.86 115.47,53.51 202.78,126.73 267.56,225.3 61.95,95.75 95.74,205.59 95.74,329.51l-422.44 0c0,-92.94 -28.16,-166.16 -87.3,-219.67 -59.14,-50.69 -140.81,-78.86 -247.84,-78.86 -104.2,0 -183.05,22.54 -239.38,64.77 -56.33,42.25 -84.49,101.39 -84.49,171.8 0,67.59 33.79,121.1 101.38,166.16 67.59,45.07 166.17,87.3 295.72,126.74 239.38,73.22 413.99,160.53 523.83,267.54 109.83,107.02 163.34,239.39 163.34,399.92 0,177.43 -67.59,315.42 -199.95,416.81 -135.18,101.38 -315.43,152.08 -540.73,152.08 -157.71,0 -301.35,-28.16 -430.9,-87.3 -129.55,-56.33 -228.11,-135.19 -295.71,-236.57 -67.59,-101.39 -101.38,-216.86 -101.38,-349.23l422.45 0c0,225.31 135.18,337.96 405.54,337.96 101.39,0 177.42,-19.72 233.75,-61.96 56.33,-42.24 81.67,-92.94 81.67,-166.16z"/>
   <path class="fil1" d="M9577.51 802.86c107.02,-129.55 242.2,-194.34 405.55,-194.34 329.5,0 495.66,191.52 501.29,574.53l0 974.44 -405.55 0 0 -963.17c0,-87.3 -19.71,-152.09 -56.32,-194.32 -36.61,-42.25 -98.57,-61.96 -185.88,-61.96 -118.27,0 -205.58,45.06 -259.09,137.99l0 1078.65 -405.54 0 0 -2154.47 405.54 0 0 802.65z"/>
   <path class="fil1" d="M10712.58 1382.99c0,-152.09 28.17,-284.45 87.31,-402.74 59.15,-118.28 140.81,-208.4 250.65,-273.17 109.84,-64.78 236.57,-95.76 380.2,-95.76 205.59,0 371.75,61.96 501.3,188.69 129.55,126.73 202.77,295.71 216.86,512.57l2.81 104.2c0,233.75 -64.77,419.63 -194.33,560.44 -129.55,140.82 -304.15,211.23 -523.82,211.23 -219.68,0 -394.28,-70.41 -523.84,-211.23 -129.55,-140.81 -197.14,-332.32 -197.14,-571.71l0 -22.52zm405.55 28.16c0,143.63 28.16,253.46 81.67,332.32 53.51,78.86 132.37,115.47 233.76,115.47 98.57,0 174.61,-36.61 230.93,-112.65 56.33,-76.05 81.67,-197.14 81.67,-363.3 0,-140.81 -28.16,-250.65 -81.67,-329.5 -56.32,-78.87 -132.36,-115.47 -233.75,-115.47 -98.57,0 -177.43,39.42 -230.94,115.47 -53.51,76.03 -81.67,197.13 -81.67,357.66z"/>
   <path class="fil1" d="M13757 1411.16c0,233.75 -53.51,422.44 -160.53,563.25 -107.03,140.83 -250.65,211.23 -430.9,211.23 -154.89,0 -278.8,-53.51 -371.75,-160.53l0 715.34 -405.55 0 0 -2103.77 377.39 0 14.08 149.26c98.57,-118.28 225.3,-177.43 385.83,-177.43 185.88,0 332.32,70.42 436.53,208.42 104.2,137.99 154.9,329.5 154.9,571.7l0 22.53zm-405.55 -30.98c0,-140.81 -25.34,-250.65 -76.04,-326.68 -50.69,-76.05 -123.92,-115.47 -219.67,-115.47 -126.74,0 -214.04,47.88 -261.92,146.44l0 622.4c50.7,101.39 138,149.27 264.73,149.27 194.32,0 292.9,-157.72 292.9,-475.96z"/>
   <path class="fil1" d="M15362.28 1411.16c0,233.75 -53.51,422.44 -160.53,563.25 -107.02,140.83 -250.65,211.23 -430.89,211.23 -154.89,0 -278.81,-53.51 -371.75,-160.53l0 715.34 -405.55 0 0 -2103.77 377.39 0 14.08 149.26c98.56,-118.28 225.3,-177.43 385.83,-177.43 185.87,0 332.32,70.42 436.52,208.42 104.21,137.99 154.9,329.5 154.9,571.7l0 22.53zm-405.55 -30.98c0,-140.81 -25.34,-250.65 -76.03,-326.68 -50.7,-76.05 -123.92,-115.47 -219.68,-115.47 -126.73,0 -214.03,47.88 -261.91,146.44l0 622.4c50.69,101.39 137.99,149.27 264.73,149.27 194.32,0 292.89,-157.72 292.89,-475.96z"/>
   <path class="fil1" d="M16159.23 1582.95l281.63 -946.27 436.53 0 -611.14 1754.55 -33.8 78.86c-90.11,197.14 -239.37,298.52 -450.6,298.52 -59.14,0 -118.29,-8.45 -180.24,-25.34l0 -306.98 61.95 0c76.04,0 135.18,-11.26 171.8,-33.8 36.62,-22.53 67.59,-61.96 90.12,-115.46l47.88 -123.92 -532.28 -1523.61 436.53 0 281.62 943.45z"/>
   <path class="fil2" d="M1697.59 1436.52l0 720.97 -422.45 0 0 -2044.63 797.01 0c154.89,0 287.27,28.17 405.55,84.49 115.46,56.33 205.59,135.18 267.55,239.39 61.95,104.19 92.93,222.48 92.93,352.03 0,199.96 -67.59,357.67 -205.59,473.14 -137.99,115.47 -326.68,174.61 -568.89,174.61l-366.11 0zm0 -340.78l377.38 0c112.65,0 197.14,-25.34 256.28,-78.85 59.14,-53.51 87.31,-126.73 87.31,-225.31 0,-101.38 -28.17,-180.24 -87.31,-242.2 -59.14,-61.96 -140.81,-92.93 -245.02,-95.75l-388.64 0 0 642.11z"/>
   <path class="fil2" d="M3944.98 1016.89c-56.32,-8.45 -104.19,-11.26 -146.44,-11.26 -154.9,0 -253.47,50.69 -301.35,154.89l0 994.16 -405.55 0 0 -1520.8 383.03 0 11.26 180.24c81.67,-140.81 194.32,-208.41 337.95,-208.41 45.06,0 87.31,5.63 126.73,16.9l-5.63 394.28z"/>
   <polygon class="fil2" points="4556.12,636.68 4147.76,636.68 4147.76,2157.47 4556.12,2157.47 "/>
   <path class="fil2" d="M5248.99 636.68l11.26 174.61c109.84,-135.19 253.46,-202.78 436.52,-202.78 160.54,0 281.64,47.88 360.49,140.83 78.85,95.74 118.28,236.57 121.1,425.26l0 982.87 -405.55 0 0 -971.61c0,-87.31 -19.71,-149.27 -56.33,-188.69 -36.6,-39.43 -98.56,-59.14 -185.87,-59.14 -115.47,0 -199.96,47.88 -256.28,146.44l0 1070.19 -405.54 0 0 -1520.79 380.2 2.81z"/>
   <path class="fil2" d="M6955.62 262.15l0 374.56 259.1 0 0 298.53 -259.1 0 0 757.58c0,56.33 11.27,95.76 30.99,121.1 22.52,25.36 61.96,36.62 123.91,36.62 45.07,0 84.49,-2.82 118.29,-8.45l0 306.98c-78.86,25.34 -160.53,36.6 -245.02,36.6 -284.45,0 -430.89,-143.62 -436.52,-430.89l0 -819.54 -222.49 0 0 -298.53 222.49 0 0 -374.56 408.35 0z"/>
   <path class="fil3" d="M6573.79 3874.13c-153.18,0 -274.44,-79.76 -274.44,-220.18l159.57 0c3.18,60.64 44.66,98.94 111.67,98.94 70.21,0 111.69,-38.3 111.69,-89.36 0,-159.55 -382.93,-63.82 -382.93,-331.85 0,-134.02 108.51,-213.81 261.66,-213.81 153.18,0 255.29,76.58 264.87,210.6l-162.75 0c-3.18,-47.85 -41.49,-86.14 -105.3,-89.33 -57.43,-3.21 -102.13,25.52 -102.13,86.15 0,149.97 379.76,67 379.76,328.66 3.18,114.88 -92.55,220.18 -261.67,220.18z"/>
   <polygon class="fil3" points="6959.88,3127.56 7109.85,3127.56 7109.85,3867.88 6959.88,3867.88 "/>
   <polygon class="fil3" points="7885.31,3124.38 7885.31,3867.88 7735.31,3867.88 7397.08,3357.32 7397.08,3867.88 7247.11,3867.88 7247.11,3124.38 7397.08,3124.38 7735.31,3634.92 7735.31,3124.38 "/>
   <path class="fil3" d="M8367.09 3117.87c165.95,0 299.97,89.36 347.81,239.33l-172.3 0c-35.09,-70.21 -98.93,-105.31 -178.69,-105.31 -130.84,0 -223.36,95.74 -223.36,245.71 0,149.98 92.52,245.72 223.36,245.72 79.76,0 143.6,-35.1 178.69,-108.49l172.3 0c-51.06,153.15 -185.05,239.3 -347.81,239.3 -213.78,0 -376.54,-156.36 -376.54,-379.72 0,-223.36 162.76,-376.54 376.54,-376.54z"/>
   <polygon class="fil3" points="9267.01,3245.61 8986.2,3245.61 8986.2,3430.71 9235.11,3430.71 9235.11,3548.76 8986.2,3548.76 8986.2,3746.61 9267.01,3746.61 9267.01,3867.88 8836.24,3867.88 8836.24,3124.38 9267.01,3124.38 "/>
   <path class="fil3" d="M9621.27 3746.55c175.48,-149.96 360.57,-287.18 360.57,-427.56 0,-70.21 -31.91,-114.89 -105.3,-114.89 -70.21,0 -111.69,51.06 -111.69,134l-143.58 0c6.37,-178.68 118.07,-258.44 258.45,-258.44 165.94,0 252.09,98.91 252.09,232.93 0,178.69 -172.3,319.08 -296.75,424.42l312.72 0 0 124.42 -526.51 0 0 -114.88z"/>
   <path class="fil3" d="M10521 3079.66c220.17,0 287.17,169.12 287.17,392.47 0,226.58 -67,395.69 -287.17,395.69 -220.19,0 -287.18,-169.11 -287.18,-395.69 0,-226.54 66.99,-392.47 287.18,-392.47zm0 137.2c-124.46,0 -140.4,121.24 -140.4,255.27 0,137.21 15.94,258.48 140.4,258.48 124.45,0 140.38,-118.06 140.38,-258.48 0,-134.03 -15.93,-255.27 -140.38,-255.27z"/>
   <polygon class="fil3" points="10999.73,3229.63 10897.61,3229.63 10897.61,3092.41 11152.88,3092.41 11152.88,3867.82 10999.73,3867.82 "/>
   <path class="fil3" d="M11813.22 3092.41l0 130.82 -344.63 0 0 181.9c28.73,-35.12 86.18,-63.81 153.18,-63.81 181.87,0 242.51,137.2 242.51,255.27 0,159.53 -92.54,271.23 -268.02,271.23 -165.95,0 -261.67,-92.54 -274.45,-220.17l143.6 0c12.76,54.24 57.44,92.54 127.63,92.54 86.16,0 127.64,-60.64 127.64,-143.6 0,-86.16 -44.67,-134.04 -127.64,-134.04 -60.64,0 -102.09,35.13 -118.05,82.98l-143.61 0 0 -453.12 481.84 0z"/>
   <line class="fil4 str0" x1="1275.14" y1="3464.25" x2="5893.86" y2= "3464.25" />
   <line class="fil4 str0" x1="12258.67" y1="3464.25" x2="16877.39" y2= "3464.25" />
  </g>
  <path class="fil1" d="M17607.59 11.04c-107.02,0 -211.21,30.98 -301.34,92.94 -90.12,59.14 -157.71,143.63 -199.95,245.02 -42.25,98.56 -50.7,208.4 -30.99,315.42 19.72,107.01 73.23,202.77 149.27,278.81 76.04,76.04 171.8,126.73 278.81,149.27 104.2,19.71 214.04,11.26 315.43,-30.99 98.57,-42.24 183.05,-109.83 245.02,-199.95 59.13,-90.13 92.93,-194.32 92.93,-301.34 0,-143.63 -56.32,-281.64 -160.53,-383.02 -107.01,-109.83 -245.02,-166.16 -388.65,-166.16zm0 980.07c-87.3,0 -168.98,-25.34 -242.2,-73.22 -70.4,-47.88 -126.73,-115.47 -160.52,-194.33 -33.8,-78.86 -42.25,-166.16 -25.35,-250.64 16.89,-84.5 59.14,-160.54 118.28,-222.5 61.96,-61.95 138,-101.39 222.49,-118.28 84.49,-16.9 171.79,-8.45 250.65,25.34 78.86,33.8 146.45,87.31 194.33,160.53 47.87,70.41 73.22,154.91 73.22,242.21 0,115.47 -45.07,225.3 -126.74,306.97 -78.85,76.04 -188.69,123.92 -304.16,123.92z"/>
  <path class="fil1" d="M17824.48 447.54c0,-42.25 -16.89,-84.48 -47.88,-115.47 -30.97,-30.97 -73.22,-47.88 -115.47,-47.88l-273.17 0 0 543.55 109.82 0 0 -216.85 78.87 0 146.44 216.85 129.55 0 -149.26 -225.3c33.79,-8.45 64.77,-30.98 87.3,-59.14 22.54,-25.35 33.8,-61.96 33.8,-95.76zm-163.35 53.51l-163.35 0 0 -109.83 163.35 0c14.08,0 28.17,5.63 39.43,16.89 11.27,11.27 16.9,25.35 16.9,39.43 0,14.08 -5.63,28.17 -16.9,39.43 -11.26,11.27 -25.35,14.08 -39.43,14.08z"/>
 </g>
</svg>
